<svg xmlns="http://www.w3.org/2000/svg" viewBox="0 0 64 64">
  <defs>
    <linearGradient id="bg" x1="0" y1="0" x2="64" y2="64" gradientUnits="userSpaceOnUse">
      <stop offset="0" stop-color="#14191b"/>
      <stop offset="1" stop-color="#0b0e10"/>
    </linearGradient>
    <linearGradient id="gem" x1="12" y1="10" x2="52" y2="54" gradientUnits="userSpaceOnUse">
      <stop offset="0" stop-color="#34d399"/>
      <stop offset="1" stop-color="#10b981"/>
    </linearGradient>
  </defs>
  <rect width="64" height="64" rx="14" fill="url(#bg)"/>
  <rect x="14" y="14" width="36" height="36" rx="10" fill="url(#gem)"/>
  <path
    fill="#0b0e10"
    d="M32 22a7.2 7.2 0 0 0-7.2 7.2c0 3 1.8 5.5 4.4 6.6l-1.9 9.2h9.4l-1.9-9.2a7.1 7.1 0 0 0 4.4-6.6A7.2 7.2 0 0 0 32 22Zm0 3.4a3.8 3.8 0 0 1 3.8 3.8c0 1.6-1 2.9-2.4 3.4L32 33.8l-1.4-.4a3.7 3.7 0 0 1-2.4-3.4 3.8 3.8 0 0 1 3.8-4.6Z"
  />
</svg>